<?xml version="1.0" encoding="UTF-8"?>
<svg width="35px" height="31px" viewBox="0 0 35 31" version="1.1" xmlns="http://www.w3.org/2000/svg" xmlns:xlink="http://www.w3.org/1999/xlink">
    <!-- Generator: Sketch 53.2 (72643) - https://sketchapp.com -->
    <title>Group 3</title>
    <desc>Created with Sketch.</desc>
    <g id="Symbols" stroke="none" stroke-width="1" fill="none" fill-rule="evenodd">
        <g id="stream-player-header" transform="translate(-62.000000, -10.000000)" fill-rule="nonzero">
            <g id="Group-6">
                <g id="Group-3" transform="translate(62.000000, 10.500000)">
                    <path d="M25.8340719,16.9757367 L25.1066466,20.2598409 C25.0149307,20.6726818 24.6487375,20.9663977 24.2258511,20.9662841 L7.91178284,20.9662841 L8.3110783,22.7696818 L23.4266807,22.7696818 C24.647033,22.7517614 24.647033,24.5917273 23.4266807,24.5736591 L7.58706693,24.5736591 C7.16419193,24.5737841 6.79797602,24.2800682 6.70627148,23.8672273 C5.59094193,18.8322955 4.44077148,13.8052727 3.38562375,8.75768182 L1.3909192,8.32078409 C0.308214659,8.10118182 0.49337375,6.50139773 1.59761239,6.53503409 L1.5976692,6.53495455 C1.6577942,6.53643182 1.7175442,6.54427273 1.77618057,6.55779545 L4.34105557,7.11919318 C4.68755557,7.19522727 4.95735102,7.46729545 5.0304192,7.81447727 L5.52072602,10.1407159 C9.59941816,10.1426435 13.6781579,10.143539 17.7569265,10.1439162 C18.6677402,13.8710907 21.8997464,16.6879886 25.8340719,16.9757367 Z M11.3415443,25.1756477 C12.659192,25.1756477 13.746692,26.2632727 13.746692,27.5809886 C13.746692,28.8987273 12.659192,29.9863182 11.3415443,29.9863182 C10.0238965,29.9863182 8.93638511,28.8987273 8.93638511,27.5809886 C8.93638511,26.2632727 10.0238965,25.1756477 11.3415443,25.1756477 Z M19.7595784,25.1756477 C21.0772375,25.1756477 22.1647375,26.2632727 22.1647375,27.5809886 C22.1647375,28.8987273 21.0772375,29.9863182 19.7595784,29.9863182 C18.441942,29.9863182 17.3544307,28.8987273 17.3544307,27.5809886 C17.3544307,26.2632727 18.441942,25.1756477 19.7595784,25.1756477 Z" id="Combined-Shape" fill="#FFFFFF"></path>
                    <path d="M26.5,16 C30.918278,16 34.5,12.418278 34.5,8 C34.5,3.581722 30.918278,0 26.5,0 C22.081722,0 18.5,3.581722 18.5,8 C18.5,12.418278 22.081722,16 26.5,16 Z" id="Path" fill="#5579F3"></path>
                </g>
            </g>
        </g>
    </g>
</svg>