<?xml version="1.0" encoding="UTF-8"?>
<svg width="50px" height="50px" viewBox="0 0 50 50" version="1.1" xmlns="http://www.w3.org/2000/svg" xmlns:xlink="http://www.w3.org/1999/xlink">
    <!-- Generator: Sketch 53.2 (72643) - https://sketchapp.com -->
    <title>noun_Checkbox_1590533</title>
    <desc>Created with Sketch.</desc>
    <g id="Stream-Video-Player" stroke="none" stroke-width="1" fill="none" fill-rule="evenodd">
        <g id="order-confirmation" transform="translate(-150.000000, -87.000000)" fill="#FFFFFF" fill-rule="nonzero">
            <g id="noun_Checkbox_1590533" transform="translate(150.000000, 87.000000)">
                <path d="M25,0 C11.2,0 0,11.2 0,25 C0,38.8 11.2,50 25,50 C38.8,50 50,38.8 50,25 C50,11.2 38.8,0 25,0 Z M38.2376704,17.8812721 L21.3532563,34.7969276 C20.6620814,35.4893813 19.5562017,35.5289501 18.8057833,34.8958496 L11.9335305,28.9407475 C11.8940348,28.9011787 11.8545391,28.8616099 11.7952955,28.8220411 C11.0448771,28.109803 11.0053814,26.9227395 11.7163041,26.1709325 C12.4272268,25.4191256 13.612098,25.3795568 14.3625164,26.091795 L19.911663,30.8994023 L35.5519624,15.2301636 C35.8876759,14.8740445 36.3616244,14.6762006 36.8355729,14.6564162 L36.8355729,14.6564162 C37.349017,14.6366318 37.8624612,14.8542601 38.2376704,15.2103792 C38.9880888,15.9621861 38.968341,17.1492496 38.2376704,17.8812721 Z" id="Shape"></path>
            </g>
        </g>
    </g>
</svg>