<?xml version="1.0" encoding="UTF-8"?>
<svg width="21px" height="21px" viewBox="0 0 21 21" version="1.1" xmlns="http://www.w3.org/2000/svg" xmlns:xlink="http://www.w3.org/1999/xlink">
    <!-- Generator: Sketch 53.2 (72643) - https://sketchapp.com -->
    <title>Path</title>
    <desc>Created with Sketch.</desc>
    <g id="Symbols" stroke="none" stroke-width="1" fill="none" fill-rule="evenodd">
        <g id="stream-player-header" transform="translate(-319.000000, -18.000000)" fill="#FFFFFF" fill-rule="nonzero">
            <g id="Group-6">
                <path d="M339.525126,36.2631579 C340.158291,36.8947368 340.158291,37.8947368 339.525126,38.5263158 C339.208543,38.8421053 338.786432,39 338.417085,39 C337.994975,39 337.625628,38.8421053 337.309045,38.5263158 L329.5,30.7894737 L321.743719,38.5263158 C321.427136,38.8421053 321.005025,39 320.635678,39 C320.266332,39 319.791457,38.8421053 319.474874,38.5263158 C318.841709,37.8947368 318.841709,36.8947368 319.474874,36.2631579 L327.231156,28.5263158 L319.474874,20.7368421 C318.841709,20.1052632 318.841709,19.1052632 319.474874,18.4736842 C320.10804,17.8421053 321.110553,17.8421053 321.743719,18.4736842 L329.5,26.2631579 L337.256281,18.5263158 C337.889447,17.8947368 338.89196,17.8947368 339.525126,18.5263158 C340.158291,19.1578947 340.158291,20.1578947 339.525126,20.7894737 L331.768844,28.5263158 L339.525126,36.2631579 Z" id="Path"></path>
            </g>
        </g>
    </g>
</svg>