<?xml version="1.0" encoding="UTF-8"?>
<svg width="20px" height="23px" viewBox="0 0 20 23" version="1.1" xmlns="http://www.w3.org/2000/svg" xmlns:xlink="http://www.w3.org/1999/xlink">
    <!-- Generator: Sketch 53.2 (72643) - https://sketchapp.com -->
    <title>noun_Delete_1447967</title>
    <desc>Created with Sketch.</desc>
    <g id="Stream-Video-Player" stroke="none" stroke-width="1" fill="none" fill-rule="evenodd">
        <g id="cart" transform="translate(-320.000000, -331.000000)" fill="#FFFFFF">
            <g id="noun_Delete_1447967" transform="translate(320.000000, 331.000000)">
                <g id="Group">
                    <path d="M19.2903226,3.03225806 L13.5483871,3.03225806 L13.5483871,1.93548387 C13.5483871,0.967741935 12.7419355,0.161290323 11.7741935,0.161290323 L8.48387097,0.161290323 C7.51612903,0.161290323 6.70967742,0.967741935 6.70967742,1.93548387 L6.70967742,3.03225806 L0.709677419,3.03225806 C0.451612903,3.03225806 0.225806452,3.25806452 0.225806452,3.51612903 C0.225806452,3.77419355 0.451612903,4 0.709677419,4 L2.67741935,4 L2.67741935,20 C2.67741935,21.3225806 3.77419355,22.4193548 5.09677419,22.4193548 L15.1935484,22.4193548 C16.516129,22.4193548 17.6129032,21.3225806 17.6129032,20 L17.6129032,4 L19.3225806,4 C19.5806452,4 19.8064516,3.77419355 19.8064516,3.51612903 C19.8064516,3.25806452 19.5806452,3.03225806 19.2903226,3.03225806 Z M7.67741935,1.93548387 C7.67741935,1.48387097 8.03225806,1.12903226 8.48387097,1.12903226 L11.8064516,1.12903226 C12.2580645,1.12903226 12.6129032,1.48387097 12.6129032,1.93548387 L12.6129032,3.03225806 L7.67741935,3.03225806 L7.67741935,1.93548387 Z M16.6451613,20 C16.6451613,20.8064516 16,21.4516129 15.1935484,21.4516129 L5.06451613,21.4516129 C4.25806452,21.4516129 3.61290323,20.8064516 3.61290323,20 L3.61290323,4 L16.6129032,4 L16.6129032,20 L16.6451613,20 Z" id="Shape" fill-rule="nonzero"></path>
                    <path d="M6.67741935,18.4193548 C6.93548387,18.4193548 7.16129032,18.1935484 7.16129032,17.9354839 L7.16129032,7.48387097 C7.16129032,7.22580645 6.93548387,7 6.67741935,7 C6.41935484,7 6.19354839,7.22580645 6.19354839,7.48387097 L6.19354839,17.9354839 C6.19354839,18.2258065 6.38709677,18.4193548 6.67741935,18.4193548 Z" id="Path"></path>
                    <path d="M13.6451613,18.4193548 C13.9032258,18.4193548 14.1290323,18.1935484 14.1290323,17.9354839 L14.1290323,7.48387097 C14.1290323,7.22580645 13.9032258,7 13.6451613,7 C13.3870968,7 13.1612903,7.22580645 13.1612903,7.48387097 L13.1612903,17.9354839 C13.1612903,18.2258065 13.3870968,18.4193548 13.6451613,18.4193548 Z" id="Path"></path>
                    <path d="M10.1290323,18.4193548 C10.3870968,18.4193548 10.6129032,18.1935484 10.6129032,17.9354839 L10.6129032,7.48387097 C10.6129032,7.22580645 10.3870968,7 10.1290323,7 C9.87096774,7 9.64516129,7.22580645 9.64516129,7.48387097 L9.64516129,17.9354839 C9.64516129,18.2258065 9.87096774,18.4193548 10.1290323,18.4193548 Z" id="Path"></path>
                </g>
            </g>
        </g>
    </g>
</svg>