<?xml version="1.0" encoding="utf-8" ?>
<svg xmlns="http://www.w3.org/2000/svg" xmlns:xlink="http://www.w3.org/1999/xlink" width="50" height="50">
	<defs>
		<clipPath id="clip_0">
			<rect x="-855" y="-564" width="1600" height="900" clip-rule="evenodd"/>
		</clipPath>
	</defs>
	<g clip-path="url(#clip_0)">
		<path fill="rgb(85,172,238)" stroke="none" d="M24.8221 49.6442C38.531 49.6442 49.6442 38.531 49.6442 24.8221C49.6442 11.1132 38.531 0 24.8221 0C11.1132 0 0 11.1132 0 24.8221C0 38.531 11.1132 49.6442 24.8221 49.6442Z"/>
	</g>
	<defs>
		<clipPath id="clip_1">
			<rect x="-855" y="-564" width="1600" height="900" clip-rule="evenodd"/>
		</clipPath>
	</defs>
	<g clip-path="url(#clip_1)">
		<path fill="rgb(255,255,255)" stroke="none" transform="translate(11.1094 15.0566)" d="M28.9195 2.7823C27.8558 3.25398 26.7115 3.57301 25.5115 3.71549C26.7367 2.98142 27.677 1.81991 28.1208 0.433628C26.9743 1.11372 25.704 1.60708 24.3531 1.87301C23.2708 0.720354 21.7288 0 20.0212 0C16.7451 0 14.0881 2.65708 14.0881 5.93319C14.0881 6.39823 14.1407 6.85089 14.2425 7.2854C9.31151 7.03805 4.93938 4.67611 2.01283 1.0854C1.50221 1.9615 1.20929 2.98142 1.20929 4.06858C1.20929 6.12655 2.25752 7.94336 3.84867 9.00708C2.87655 8.97655 1.96106 8.70973 1.1615 8.26416C1.16106 8.28938 1.16106 8.3146 1.16106 8.33938C1.16106 11.2142 3.20708 13.6119 5.9208 14.1566C5.42345 14.2929 4.89823 14.365 4.35796 14.365C3.97478 14.365 3.60354 14.3283 3.24159 14.2593C3.99646 16.6159 6.18717 18.3314 8.78407 18.3796C6.7531 19.9712 4.19513 20.9195 1.4146 20.9195C0.936726 20.9195 0.463274 20.8916 0 20.8363C2.62434 22.5204 5.74381 23.5022 9.09425 23.5022C20.0075 23.5022 25.9757 14.4615 25.9757 6.62035C25.9757 6.36327 25.9699 6.10708 25.9584 5.8531C27.1186 5.01681 28.1243 3.97212 28.9195 2.7823L28.9195 2.7823Z"/>
	</g>

</svg>